<svg width="65" height="65" viewBox="0 0 65 65" fill="none" xmlns="http://www.w3.org/2000/svg">
<path fill-rule="evenodd" clip-rule="evenodd" d="M59.1614 50.8673C59.2567 50.9818 59.3365 51.1105 59.397 51.2508L63.501 60.7035C63.9032 61.5755 63.7256 62.6052 63.0531 63.2906C62.3812 63.9754 61.3566 64.1736 60.4769 63.7887L50.8363 59.8585C50.6838 59.7961 50.5435 59.7111 50.4199 59.6088L59.1614 50.8673ZM14.8186 41.8233L22.9551 49.2622L22.4757 55.8227C22.3315 57.792 20.9446 59.4466 19.0339 59.9344C18.4515 60.0992 7.46583 63.1915 4.85875 63.4631C4.3941 63.512 3.88761 63.4187 3.40687 63.2076L7.42271 59.1036C7.90667 58.6087 7.89831 57.8133 7.40276 57.3287C6.90786 56.8447 6.11242 56.8531 5.62846 57.3486L1.59266 61.4732C1.33266 60.9487 1.2136 60.3849 1.26702 59.872C1.5386 57.2643 4.63157 46.2799 4.79568 45.6969C5.2835 43.7855 6.9394 42.3986 8.90806 42.2544L14.8186 41.8233ZM19.0339 59.9344L19.0577 59.928L19.0075 59.9409C19.0165 59.9389 19.0255 59.937 19.0339 59.9344ZM48.2118 58.267C48.1481 58.22 48.087 58.1672 48.0291 58.1093L34.3784 44.4586C37.5975 41.8773 41.0515 38.8249 44.5512 35.4204L57.6349 48.5041C57.6922 48.5614 57.7443 48.6225 57.7919 48.6869L48.2118 58.267ZM16.4854 39.9466C19.7489 34.6025 25.5056 27.511 32.6781 20.3398C41.7845 11.2327 50.7751 4.41479 56.2493 2.03939C57.8949 1.32504 59.2811 0.996819 60.3205 1.01806C61.383 1.03994 62.1907 1.39325 62.7641 1.96667C63.3375 2.54009 63.6915 3.34776 63.7127 4.41028C63.7346 5.44964 63.4064 6.83523 62.692 8.48147C60.316 13.9556 53.4981 22.9462 44.3916 32.0527C37.4244 39.0199 30.5338 44.6517 25.2488 47.9584L16.4854 39.9466ZM4.79568 45.6969C4.79375 45.7059 4.79118 45.7149 4.78925 45.7233L4.80276 45.6731L4.79568 45.6969ZM20.2715 30.353L1.11128 11.1928C0.48895 10.5705 0.48895 9.56073 1.11128 8.9384L8.46336 1.58697C9.08568 0.963997 10.0948 0.963997 10.7178 1.58697L29.3103 20.1795C25.9065 23.6792 22.8541 27.1333 20.2715 30.353Z" fill="#E86E04"/>
</svg>
