<svg width="72" height="64" viewBox="0 0 72 64" fill="none" xmlns="http://www.w3.org/2000/svg">
<path d="M14.2222 52.9832H32V56.51H28.4444C26.3111 56.51 24.8889 57.9207 24.8889 60.0368C24.8889 62.1529 26.3111 63.5636 28.4444 63.5636H42.6667C44.8 63.5636 46.2222 62.1529 46.2222 60.0368C46.2222 57.9207 44.8 56.51 42.6667 56.51H39.1111V52.9832H56.8889C64.7111 52.9832 71.1111 46.6349 71.1111 38.8759V14.1881C71.1111 6.42909 64.7111 0.0808105 56.8889 0.0808105H14.2222C6.4 0.0808105 0 6.42909 0 14.1881V38.8759C0 46.6349 6.4 52.9832 14.2222 52.9832ZM56.8889 45.9295H14.2222C11.7333 45.9295 9.24444 44.5188 8.17778 42.4027H62.9333C61.8667 44.5188 59.3778 45.9295 56.8889 45.9295ZM14.2222 7.13446H56.8889C60.8 7.13446 64 10.3086 64 14.1881V35.3491H7.11111V14.1881C7.11111 10.3086 10.3111 7.13446 14.2222 7.13446Z" fill="#DA004C"/>
<path d="M25.9551 30.764C26.6662 31.4694 27.3773 31.8221 28.444 31.8221C29.5107 31.8221 30.2218 31.4694 30.9329 30.764C32.3551 29.3533 32.3551 27.2372 30.9329 25.8265L26.3107 21.2416L30.9329 16.6567C32.3551 15.246 32.3551 13.1299 30.9329 11.7192C29.5107 10.3085 27.3773 10.3085 25.9551 11.7192L18.844 18.7728C17.4218 20.1836 17.4218 22.2997 18.844 23.7104L25.9551 30.764ZM40.1773 30.764C40.8885 31.4694 41.9551 31.8221 42.6662 31.8221C43.3773 31.8221 44.444 31.4694 45.1551 30.764L52.2662 23.7104C53.6885 22.2997 53.6885 20.1836 52.2662 18.7728L45.1551 11.7192C43.7329 10.3085 41.5996 10.3085 40.1773 11.7192C38.7551 13.1299 38.7551 15.246 40.1773 16.6567L44.7996 21.2416L40.1773 25.8265C38.7551 27.2372 38.7551 29.3533 40.1773 30.764Z" fill="#DA004C"/>
</svg>
